<svg width="136" height="46" viewBox="0 0 136 46" fill="none" xmlns="http://www.w3.org/2000/svg">
<path fill-rule="evenodd" clip-rule="evenodd" d="M6.02255 17.7307C4.30381 17.266 2.50435 17.0316 0.758754 16.8169C0.382779 16.7718 0.0337127 17.0231 0.0068574 17.377C-0.0468532 17.7312 0.221857 18.0552 0.570976 18.1002C2.26286 18.3069 4.0083 18.5282 5.64647 18.9755C5.99559 19.0725 6.37172 18.8728 6.47914 18.5292C6.58657 18.1858 6.37167 17.828 6.02255 17.7307Z" fill="#2B2B2B"/>
<path fill-rule="evenodd" clip-rule="evenodd" d="M11.2326 11.1425C8.46647 8.42288 5.35125 6.05336 2.63887 3.2608C2.39717 3 1.96748 2.98602 1.69893 3.2295C1.43038 3.47323 1.40363 3.88307 1.67218 4.14387C4.38457 6.94445 7.49978 9.32173 10.2659 12.0493C10.5344 12.3039 10.964 12.3076 11.2326 12.0571C11.4743 11.8069 11.5011 11.3971 11.2326 11.1425Z" fill="#2B2B2B"/>
<path fill-rule="evenodd" clip-rule="evenodd" d="M16.4155 0.68197C16.4961 2.23854 16.5765 3.7951 16.6571 5.35192C16.6571 5.70846 16.9795 5.98376 17.3555 5.96643C17.7314 5.94883 17.9998 5.64533 17.9998 5.28853C17.9193 3.72938 17.8388 2.17049 17.7583 0.611593C17.7314 0.255052 17.4091 -0.0184333 17.0331 0.000972033C16.684 0.0203774 16.3887 0.325689 16.4155 0.68197Z" fill="#2B2B2B"/>
<path d="M36.1709 34.128V38H20.3949V15.28H35.8829V19.152H24.8109V24.624H34.3789V28.208H24.8109V34.128H36.1709ZM41.9496 21.232L45.4696 26.48L45.7256 27.056L46.0456 26.48L49.5336 21.232H54.0456L48.2216 29.584L54.1416 38H49.6296L46.0136 32.784L45.7256 32.24L45.4696 32.784L41.8856 38H37.3736L43.2936 29.68L37.4696 21.232H41.9496ZM66.2456 38.32C64.9443 38.32 63.7923 38.032 62.7896 37.456C61.8083 36.8587 61.0403 36.0587 60.4856 35.056V44.816H56.1976V21.232H59.9416V24.112C60.5816 23.1307 61.3923 22.3627 62.3736 21.808C63.3549 21.232 64.4749 20.944 65.7336 20.944C66.8643 20.944 67.8989 21.168 68.8376 21.616C69.7976 22.064 70.6296 22.6933 71.3336 23.504C72.0376 24.2933 72.5816 25.2107 72.9656 26.256C73.3709 27.28 73.5736 28.3893 73.5736 29.584C73.5736 31.2053 73.2536 32.6773 72.6136 34C71.9949 35.3227 71.1309 36.3787 70.0216 37.168C68.9336 37.936 67.6749 38.32 66.2456 38.32ZM64.8056 34.672C65.4669 34.672 66.0643 34.5333 66.5976 34.256C67.1309 33.9787 67.5896 33.6053 67.9736 33.136C68.3789 32.6453 68.6776 32.1013 68.8696 31.504C69.0829 30.8853 69.1896 30.2453 69.1896 29.584C69.1896 28.88 69.0723 28.2293 68.8376 27.632C68.6243 27.0347 68.3043 26.512 67.8776 26.064C67.4509 25.5947 66.9496 25.232 66.3736 24.976C65.8189 24.72 65.2109 24.592 64.5496 24.592C64.1443 24.592 63.7283 24.6667 63.3016 24.816C62.8963 24.944 62.5016 25.136 62.1176 25.392C61.7336 25.648 61.3923 25.9467 61.0936 26.288C60.8163 26.6293 60.6136 27.0027 60.4856 27.408V31.344C60.7416 31.9627 61.0829 32.528 61.5096 33.04C61.9576 33.552 62.4696 33.9573 63.0456 34.256C63.6216 34.5333 64.2083 34.672 64.8056 34.672ZM76.4469 14.64H80.7349V32.624C80.7349 33.392 80.8629 33.9147 81.1189 34.192C81.3749 34.448 81.7269 34.576 82.1749 34.576C82.5162 34.576 82.8682 34.5333 83.2309 34.448C83.5935 34.3627 83.9135 34.256 84.1909 34.128L84.7669 37.392C84.1909 37.6693 83.5189 37.8827 82.7509 38.032C81.9829 38.1813 81.2895 38.256 80.6709 38.256C79.3269 38.256 78.2815 37.904 77.5349 37.2C76.8095 36.4747 76.4469 35.4507 76.4469 34.128V14.64ZM94.3791 38.32C93.0138 38.32 91.7871 38.096 90.6991 37.648C89.6111 37.1787 88.6831 36.5387 87.9151 35.728C87.1684 34.9173 86.5924 33.9893 86.1871 32.944C85.7818 31.8987 85.5791 30.8 85.5791 29.648C85.5791 28.4747 85.7818 27.3653 86.1871 26.32C86.5924 25.2747 87.1684 24.3467 87.9151 23.536C88.6831 22.7253 89.6111 22.096 90.6991 21.648C91.7871 21.1787 93.0138 20.944 94.3791 20.944C95.7444 20.944 96.9604 21.1787 98.0271 21.648C99.1151 22.096 100.043 22.7253 100.811 23.536C101.579 24.3467 102.155 25.2747 102.539 26.32C102.944 27.3653 103.147 28.4747 103.147 29.648C103.147 30.8 102.944 31.8987 102.539 32.944C102.155 33.9893 101.579 34.9173 100.811 35.728C100.064 36.5387 99.1471 37.1787 98.0591 37.648C96.9711 38.096 95.7444 38.32 94.3791 38.32ZM89.9951 29.648C89.9951 30.6293 90.1871 31.504 90.5711 32.272C90.9551 33.0187 91.4778 33.6053 92.1391 34.032C92.8004 34.4587 93.5471 34.672 94.3791 34.672C95.1898 34.672 95.9258 34.4587 96.5871 34.032C97.2484 33.584 97.7711 32.9867 98.1551 32.24C98.5604 31.472 98.7631 30.5973 98.7631 29.616C98.7631 28.656 98.5604 27.792 98.1551 27.024C97.7711 26.256 97.2484 25.6587 96.5871 25.232C95.9258 24.8053 95.1898 24.592 94.3791 24.592C93.5471 24.592 92.8004 24.816 92.1391 25.264C91.4778 25.6907 90.9551 26.288 90.5711 27.056C90.1871 27.8027 89.9951 28.6667 89.9951 29.648ZM116.025 24.944C114.724 24.944 113.561 25.2 112.537 25.712C111.513 26.2027 110.777 26.9173 110.329 27.856V38H106.041V21.232H109.977V24.816C110.575 23.664 111.332 22.7573 112.249 22.096C113.167 21.4347 114.137 21.072 115.161 21.008C115.396 21.008 115.577 21.008 115.705 21.008C115.833 21.008 115.94 21.0187 116.025 21.04V24.944ZM125.974 38.32C124.63 38.32 123.414 38.096 122.326 37.648C121.238 37.1787 120.31 36.5493 119.542 35.76C118.774 34.9493 118.176 34.032 117.75 33.008C117.344 31.9627 117.142 30.864 117.142 29.712C117.142 28.112 117.494 26.6507 118.198 25.328C118.923 24.0053 119.947 22.9493 121.27 22.16C122.614 21.3493 124.192 20.944 126.006 20.944C127.84 20.944 129.408 21.3493 130.71 22.16C132.011 22.9493 133.003 24.0053 133.686 25.328C134.39 26.6293 134.742 28.0373 134.742 29.552C134.742 29.808 134.731 30.0747 134.71 30.352C134.688 30.608 134.667 30.8213 134.646 30.992H121.686C121.771 31.8453 122.016 32.592 122.422 33.232C122.848 33.872 123.382 34.3627 124.022 34.704C124.683 35.024 125.387 35.184 126.134 35.184C126.987 35.184 127.787 34.9813 128.534 34.576C129.302 34.1493 129.824 33.5947 130.102 32.912L133.782 33.936C133.376 34.7893 132.79 35.5467 132.022 36.208C131.275 36.8693 130.39 37.392 129.366 37.776C128.342 38.1387 127.211 38.32 125.974 38.32ZM121.59 28.272H130.358C130.272 27.4187 130.027 26.6827 129.622 26.064C129.238 25.424 128.726 24.9333 128.086 24.592C127.446 24.2293 126.731 24.048 125.942 24.048C125.174 24.048 124.47 24.2293 123.83 24.592C123.211 24.9333 122.699 25.424 122.294 26.064C121.91 26.6827 121.675 27.4187 121.59 28.272Z" fill="#2B2B2B"/>
</svg>
