<svg width="22" height="22" viewBox="0 0 22 22" fill="none" xmlns="http://www.w3.org/2000/svg">
<path d="M21.9995 11.2503C22.0005 10.5007 21.9358 9.75241 21.8062 9.01367H11.2222V13.2501H17.2842C17.1602 13.9267 16.8976 14.5717 16.5124 15.1461C16.1272 15.7206 15.6272 16.2127 15.0427 16.5927V19.3426H18.6606C20.779 17.4284 21.9995 14.5975 21.9995 11.2503Z" fill="#4285F4"/>
<path d="M11.2228 21.9999C14.2515 21.9999 16.8016 21.0252 18.6612 19.3447L15.0433 16.5948C14.0364 17.2639 12.7395 17.6459 11.2228 17.6459C8.2954 17.6459 5.81071 15.7118 4.92221 13.1055H1.19519V15.9394C2.12931 17.7612 3.56168 19.2927 5.33239 20.3628C7.1031 21.433 9.14245 21.9998 11.2228 21.9999Z" fill="#34A853"/>
<path d="M4.92209 13.1058C4.45237 11.74 4.45237 10.2611 4.92209 8.89534V6.0614H1.19507C0.409252 7.59395 0 9.28536 0 11.0005C0 12.7157 0.409252 14.4071 1.19507 15.9397L4.92209 13.1058Z" fill="#FBBC04"/>
<path d="M11.2228 4.35474C12.8233 4.32912 14.3698 4.9218 15.5281 6.00469L18.7314 2.86521C16.7002 0.995388 14.0093 -0.0311758 11.2228 0.000721679C9.14245 0.000814603 7.1031 0.567592 5.33239 1.63778C3.56168 2.70796 2.12931 4.23944 1.19519 6.06122L4.92221 8.89515C5.81071 6.28885 8.2954 4.35474 11.2228 4.35474Z" fill="#EA4335"/>
</svg>
