<svg width="27" height="30" viewBox="0 0 27 30" fill="none" xmlns="http://www.w3.org/2000/svg">
<path fill-rule="evenodd" clip-rule="evenodd" d="M9.03383 27.9959C6.45572 27.2621 3.75652 26.892 1.13813 26.5529C0.574169 26.4818 0.0505691 26.8785 0.0102861 27.4374C-0.0702798 27.9967 0.332786 28.5082 0.856464 28.5792C3.39429 28.9057 6.01245 29.255 8.46971 29.9613C8.99339 30.1145 9.55758 29.7991 9.71872 29.2566C9.87985 28.7145 9.55751 28.1495 9.03383 27.9959Z" fill="white"/>
<path fill-rule="evenodd" clip-rule="evenodd" d="M16.8484 17.5934C12.6992 13.2993 8.02639 9.55797 3.95781 5.14867C3.59527 4.73687 2.95074 4.71481 2.54791 5.09924C2.14508 5.48408 2.10495 6.13119 2.50778 6.54299C6.57636 10.965 11.2492 14.7186 15.3983 19.0253C15.8012 19.4273 16.4455 19.433 16.8484 19.0376C17.2109 18.6425 17.2512 17.9954 16.8484 17.5934Z" fill="white"/>
<path fill-rule="evenodd" clip-rule="evenodd" d="M24.6235 1.0768C24.7444 3.53453 24.865 5.99226 24.9858 8.45041C24.9858 9.01336 25.4695 9.44804 26.0334 9.42067C26.5974 9.39289 27 8.91368 27 8.35032C26.8791 5.8885 26.7585 3.42708 26.6377 0.965673C26.5974 0.402714 26.1139 -0.0291052 25.5499 0.00153479C25.0263 0.0321748 24.5832 0.514245 24.6235 1.0768Z" fill="white"/>
</svg>
