<svg width="45" height="45" viewBox="0 0 45 45" fill="none" xmlns="http://www.w3.org/2000/svg">
<path fill-rule="evenodd" clip-rule="evenodd" d="M42.6053 14.1615C34.1594 29.8664 17.2879 36.2514 1.61787 27.4098C1.09622 27.1154 0.434695 27.2995 0.140284 27.8147C-0.154126 28.3391 0.0299 29.0015 0.551559 29.296C17.3477 38.7815 35.4622 32.0193 44.5153 15.1919C44.7987 14.6675 44.6009 14.005 44.0737 13.7197C43.5465 13.4437 42.8887 13.637 42.6053 14.1615Z" fill="white"/>
<path d="M14.8048 20.6742C16.5495 20.6742 17.9638 19.2599 17.9638 17.5153C17.9638 15.7706 16.5495 14.3563 14.8048 14.3563C13.0602 14.3563 11.6459 15.7706 11.6459 17.5153C11.6459 19.2599 13.0602 20.6742 14.8048 20.6742Z" fill="white"/>
<path d="M27.882 17.3139C29.5925 17.3139 30.9792 15.9273 30.9792 14.2167C30.9792 12.5062 29.5925 11.1195 27.882 11.1195C26.1714 11.1195 24.7848 12.5062 24.7848 14.2167C24.7848 15.9273 26.1714 17.3139 27.882 17.3139Z" fill="white"/>
</svg>
