<svg width="134" height="18" viewBox="0 0 134 18" fill="none" xmlns="http://www.w3.org/2000/svg">
<path fill-rule="evenodd" clip-rule="evenodd" d="M35.7156 10.6001C29.9586 12.2268 23.3118 13.8456 16.9177 14.2498C11.4525 14.5948 6.17356 14.0589 1.8527 11.779C1.24361 11.458 0.480873 11.6787 0.151473 12.2728C-0.178428 12.8664 0.0485338 13.6097 0.657622 13.9312C5.37115 16.4177 11.1185 17.068 17.0799 16.6912C23.589 16.2802 30.3558 14.6506 36.2282 13.0004C36.9096 14.3457 38.3206 15.5999 40.8062 16.5253C44.6239 17.9469 49.8365 17.9293 55.3279 17.1282C63.2922 15.9669 71.8596 13.1977 77.368 11.2299C77.594 11.1497 77.9304 11.022 78.3422 10.8536C78.4677 11.1238 78.6083 11.39 78.7639 11.6513C80.1147 13.9288 82.5049 15.7702 84.9402 16.4279C100.386 20.5983 118.412 15.6014 133.09 11.5348C133.753 11.3503 134.139 10.6731 133.953 10.0237C133.763 9.3743 133.07 8.997 132.402 9.18149C118.136 13.1345 100.622 18.1221 85.608 14.0697C83.7602 13.5705 81.9625 12.1553 80.9382 10.4269C80.8227 10.2341 80.7223 10.0369 80.6269 9.83674C82.6505 8.85949 85.0306 7.49712 86.311 6.03882C87.6266 4.54383 87.953 2.94803 86.8081 1.4408C85.8239 0.152313 84.3326 0.0426937 82.781 0.71067C81.1089 1.42611 79.3866 3.09872 78.8292 3.88366C77.7848 5.34978 77.4534 6.94022 77.6442 8.491C77.1521 8.69359 76.7524 8.84431 76.5059 8.93239C71.118 10.8566 62.7439 13.5725 54.9563 14.7083C49.9455 15.4394 45.1858 15.5368 41.702 14.24C40.2162 13.6865 39.2345 13.0406 38.7017 12.2909C39.7532 11.9845 40.767 11.6831 41.7356 11.3954C43.6513 10.8262 47.6397 9.88422 50.4893 8.20522C52.7555 6.87025 54.292 5.05423 54.2026 2.77773C54.1569 1.60816 53.4624 0.827613 52.3572 0.390125C50.7057 -0.263171 47.8496 0.0529492 46.7861 0.273161C43.5604 0.93967 39.2551 3.6987 37.1251 6.8076C36.2749 8.04813 35.7693 9.34591 35.7156 10.6001ZM38.3653 9.83575C39.2767 9.56856 40.1574 9.30626 41.0035 9.05473C42.7916 8.52329 46.5295 7.67913 49.1903 6.11122C50.5993 5.28127 51.7497 4.2869 51.6939 2.87118C51.6894 2.76108 51.5774 2.72977 51.4785 2.68475C51.3254 2.61575 51.1501 2.56827 50.9633 2.53108C49.6995 2.27954 48.0018 2.52275 47.3068 2.66662C44.6003 3.22596 41 5.55776 39.2129 8.16654C38.8353 8.71756 38.5345 9.27886 38.3653 9.83575ZM80.1247 7.36449C81.3047 6.77286 82.54 6.0574 83.5141 5.27883C84.0313 4.86532 84.4682 4.44008 84.7444 3.99868C84.9753 3.63362 85.0657 3.25972 84.7895 2.89857C84.6791 2.75225 84.5134 2.74934 84.3427 2.77674C84.1619 2.8061 83.9761 2.86872 83.7903 2.94947C82.5651 3.47504 81.2997 4.70285 80.893 5.27883C80.416 5.9468 80.18 6.65345 80.1247 7.36449Z" fill="#ECECEC"/>
</svg>
