<svg width="238" height="85" viewBox="0 0 238 85" fill="none" xmlns="http://www.w3.org/2000/svg">
<path fill-rule="evenodd" clip-rule="evenodd" d="M9.03383 27.9959C6.45572 27.2621 3.75652 26.892 1.13813 26.5529C0.574169 26.4818 0.0505691 26.8785 0.0102861 27.4374C-0.0702798 27.9967 0.332786 28.5082 0.856464 28.5792C3.39429 28.9057 6.01245 29.255 8.46971 29.9613C8.99339 30.1145 9.55758 29.7991 9.71872 29.2566C9.87985 28.7145 9.55751 28.1495 9.03383 27.9959Z" fill="white"/>
<path fill-rule="evenodd" clip-rule="evenodd" d="M16.8484 17.5934C12.6992 13.2993 8.02639 9.55791 3.95781 5.14861C3.59527 4.73681 2.95074 4.71475 2.54791 5.09918C2.14508 5.48402 2.10495 6.13113 2.50778 6.54293C6.57636 10.9649 11.2492 14.7185 15.3983 19.0253C15.8012 19.4273 16.4455 19.433 16.8484 19.0375C17.2109 18.6425 17.2512 17.9953 16.8484 17.5934Z" fill="white"/>
<path fill-rule="evenodd" clip-rule="evenodd" d="M24.6235 1.0768C24.7444 3.53453 24.865 5.99226 24.9858 8.45041C24.9858 9.01337 25.4695 9.44804 26.0334 9.42067C26.5974 9.39289 27 8.91369 27 8.35032C26.8791 5.8885 26.7585 3.42708 26.6377 0.965673C26.5974 0.402714 26.1139 -0.0291052 25.5499 0.00153479C25.0263 0.0321748 24.5832 0.514245 24.6235 1.0768Z" fill="white"/>
<path d="M27.7573 21.7H33.1273L35.0773 28.27L37.0573 21.7H42.4273L38.8273 31.87L40.3573 36.22L44.9473 21.7H51.3073L43.2673 43H38.1973L35.0773 35.38L31.9873 43H26.9173L18.8773 21.7H25.2073L29.8273 36.22L31.2973 31.87L27.7573 21.7ZM67.9465 37.9V43H52.7665V21.7H67.6765V26.8H58.6165V29.8H66.3565V34.54H58.6165V37.9H67.9465ZM70.6669 43V21.7H76.5169V37.9H86.1769V43H70.6669ZM88.2157 43V21.7H94.0657V37.9H103.726V43H88.2157ZM104.331 32.17C104.331 30.87 104.571 29.6 105.051 28.36C105.551 27.1 106.271 25.96 107.211 24.94C108.151 23.92 109.291 23.11 110.631 22.51C111.991 21.89 113.521 21.58 115.221 21.58C117.261 21.58 119.041 22.01 120.561 22.87C122.081 23.71 123.211 24.83 123.951 26.23L119.481 29.41C119.221 28.71 118.841 28.17 118.341 27.79C117.861 27.41 117.331 27.15 116.751 27.01C116.191 26.85 115.641 26.77 115.101 26.77C114.261 26.77 113.531 26.94 112.911 27.28C112.311 27.6 111.811 28.03 111.411 28.57C111.031 29.11 110.741 29.71 110.541 30.37C110.361 31.03 110.271 31.69 110.271 32.35C110.271 33.09 110.381 33.8 110.601 34.48C110.821 35.16 111.141 35.77 111.561 36.31C111.981 36.83 112.491 37.24 113.091 37.54C113.711 37.84 114.401 37.99 115.161 37.99C115.701 37.99 116.251 37.91 116.811 37.75C117.371 37.57 117.881 37.29 118.341 36.91C118.801 36.53 119.151 36.02 119.391 35.38L124.161 38.23C123.741 39.27 123.041 40.16 122.061 40.9C121.081 41.64 119.971 42.21 118.731 42.61C117.491 42.99 116.261 43.18 115.041 43.18C113.461 43.18 112.011 42.87 110.691 42.25C109.391 41.61 108.261 40.77 107.301 39.73C106.361 38.67 105.631 37.49 105.111 36.19C104.591 34.87 104.331 33.53 104.331 32.17ZM135.521 43.18C133.901 43.18 132.431 42.88 131.111 42.28C129.791 41.66 128.651 40.84 127.691 39.82C126.751 38.78 126.021 37.62 125.501 36.34C125.001 35.04 124.751 33.7 124.751 32.32C124.751 30.9 125.021 29.55 125.561 28.27C126.101 26.99 126.851 25.85 127.811 24.85C128.791 23.83 129.941 23.03 131.261 22.45C132.601 21.87 134.061 21.58 135.641 21.58C137.261 21.58 138.731 21.89 140.051 22.51C141.371 23.11 142.501 23.93 143.441 24.97C144.381 26.01 145.101 27.18 145.601 28.48C146.121 29.76 146.381 31.08 146.381 32.44C146.381 33.84 146.111 35.18 145.571 36.46C145.051 37.74 144.301 38.89 143.321 39.91C142.361 40.91 141.221 41.71 139.901 42.31C138.581 42.89 137.121 43.18 135.521 43.18ZM130.691 32.38C130.691 33.1 130.791 33.8 130.991 34.48C131.191 35.14 131.491 35.74 131.891 36.28C132.291 36.8 132.791 37.22 133.391 37.54C134.011 37.84 134.741 37.99 135.581 37.99C136.421 37.99 137.151 37.83 137.771 37.51C138.391 37.19 138.891 36.76 139.271 36.22C139.671 35.66 139.961 35.05 140.141 34.39C140.341 33.71 140.441 33.02 140.441 32.32C140.441 31.6 140.341 30.91 140.141 30.25C139.941 29.59 139.641 29 139.241 28.48C138.841 27.94 138.331 27.52 137.711 27.22C137.091 26.92 136.371 26.77 135.551 26.77C134.711 26.77 133.981 26.93 133.361 27.25C132.761 27.57 132.261 28 131.861 28.54C131.461 29.06 131.161 29.66 130.961 30.34C130.781 31 130.691 31.68 130.691 32.38ZM164.97 43V31.78L161.4 39.67H158.28L154.71 31.78V43H148.86V21.7H155.25L159.84 31.72L164.46 21.7H170.82V43H164.97ZM189.646 37.9V43H174.466V21.7H189.376V26.8H180.316V29.8H188.056V34.54H180.316V37.9H189.646ZM214.845 26.8H208.725V43H202.875V26.8H196.725V21.7H214.845V26.8ZM226.253 43.18C224.633 43.18 223.163 42.88 221.843 42.28C220.523 41.66 219.383 40.84 218.423 39.82C217.483 38.78 216.753 37.62 216.233 36.34C215.733 35.04 215.483 33.7 215.483 32.32C215.483 30.9 215.753 29.55 216.293 28.27C216.833 26.99 217.583 25.85 218.543 24.85C219.523 23.83 220.673 23.03 221.993 22.45C223.333 21.87 224.793 21.58 226.373 21.58C227.993 21.58 229.463 21.89 230.783 22.51C232.103 23.11 233.233 23.93 234.173 24.97C235.113 26.01 235.833 27.18 236.333 28.48C236.853 29.76 237.113 31.08 237.113 32.44C237.113 33.84 236.843 35.18 236.303 36.46C235.783 37.74 235.033 38.89 234.053 39.91C233.093 40.91 231.953 41.71 230.633 42.31C229.313 42.89 227.853 43.18 226.253 43.18ZM221.423 32.38C221.423 33.1 221.523 33.8 221.723 34.48C221.923 35.14 222.223 35.74 222.623 36.28C223.023 36.8 223.523 37.22 224.123 37.54C224.743 37.84 225.473 37.99 226.313 37.99C227.153 37.99 227.883 37.83 228.503 37.51C229.123 37.19 229.623 36.76 230.003 36.22C230.403 35.66 230.693 35.05 230.873 34.39C231.073 33.71 231.173 33.02 231.173 32.32C231.173 31.6 231.073 30.91 230.873 30.25C230.673 29.59 230.373 29 229.973 28.48C229.573 27.94 229.063 27.52 228.443 27.22C227.823 26.92 227.103 26.77 226.283 26.77C225.443 26.77 224.713 26.93 224.093 27.25C223.493 27.57 222.993 28 222.593 28.54C222.193 29.06 221.893 29.66 221.693 30.34C221.513 31 221.423 31.68 221.423 32.38ZM100.804 67.53V78H94.954V56.7H99.514L108.064 67.53V56.7H113.914V78H109.264L100.804 67.53ZM117.571 78V56.7H123.421V78H117.571ZM127.093 78V56.7H132.943V64.8L139.423 56.7H146.023L138.283 66.24L146.563 78H139.843L134.563 70.17L132.943 71.85V78H127.093ZM162.986 72.9V78H147.806V56.7H162.716V61.8H153.656V64.8H161.396V69.54H153.656V72.9H162.986Z" fill="#ECECEC"/>
</svg>
