<svg width="375" height="489" viewBox="0 0 375 489" fill="none" xmlns="http://www.w3.org/2000/svg">
<g opacity="0.8">
<path fill-rule="evenodd" clip-rule="evenodd" d="M64.9455 84.6584C69.9292 90.2061 75.3624 95.4384 78.6385 102.656C78.8348 103.085 79.2914 103.247 79.6625 103.017C80.0315 102.784 80.1745 102.249 79.9803 101.818C76.6271 94.4318 71.096 89.0477 65.9959 83.3718C65.6958 83.0344 65.2137 83.0513 64.9245 83.4071C64.633 83.7606 64.6454 84.321 64.9455 84.6584Z" fill="white"/>
<path fill-rule="evenodd" clip-rule="evenodd" d="M71.2668 75.4629C74.1946 75.4265 76.9317 75.9757 79.5246 77.5588C79.8949 77.7852 80.353 77.6157 80.5506 77.1838C80.7459 76.7495 80.6042 76.2138 80.2362 75.9898C77.4168 74.268 74.4476 73.6555 71.2652 73.6942C70.8461 73.6982 70.5064 74.0979 70.5084 74.5878C70.5084 75.075 70.85 75.4693 71.2668 75.4629Z" fill="white"/>
<path fill-rule="evenodd" clip-rule="evenodd" d="M81.4692 51.9936C84.4852 49.8268 87.7092 49.0484 91.2 49.719C91.6117 49.7978 92.0046 49.4712 92.0747 48.9882C92.147 48.5076 91.8699 48.0515 91.4582 47.9727C87.5942 47.2315 84.023 48.0892 80.6835 50.4882C80.3254 50.744 80.2128 51.292 80.4287 51.7062C80.6467 52.123 81.1132 52.2518 81.4692 51.9936Z" fill="white"/>
<path fill-rule="evenodd" clip-rule="evenodd" d="M59.4722 21.3921C58.5714 21.533 57.679 21.7678 56.8122 22.106C56.426 22.2563 55.6596 22.6333 55.1844 23.1495C54.6762 23.6976 54.4572 24.3823 54.6936 25.1159C55.0081 26.0897 55.5058 26.5506 56.033 26.7221C56.5402 26.8878 57.1245 26.7762 57.7146 26.4215C58.842 25.7433 60.014 24.1224 60.5388 23.0447C61.4385 22.9733 62.3422 23.0016 63.2377 23.1243C69.9071 24.0387 74.8709 31.5715 75.5098 41.4541C75.7328 44.9135 73.6149 49.4366 70.9005 53.8616C66.6748 60.7522 60.9036 67.3334 59.2677 69.3198C58.8647 69.8113 58.6724 70.1527 58.6483 70.2361C58.5248 70.641 58.6509 70.9138 58.758 71.0801C58.9149 71.3186 59.0974 71.4352 59.2753 71.4895C59.517 71.5614 59.7895 71.5257 60.0656 71.3178C60.217 71.2018 60.3901 71.0003 60.5607 70.7707C60.6776 70.61 60.7834 70.4112 60.8973 70.3278C61.6288 69.7967 62.3829 69.3203 63.1365 68.8342C65.6646 67.1947 68.278 65.9172 70.9876 64.7466C79.5967 61.0263 88.4132 56.7986 97.7196 56.8768C98.137 56.8802 98.4832 56.4878 98.4889 55.9985C98.4969 55.5115 98.1631 55.1125 97.7433 55.1071C88.2516 55.0259 79.2527 59.294 70.4725 63.0873C68.1679 64.0835 65.9305 65.1556 63.7551 66.452C66.5377 63.0291 70.2752 58.1699 73.0609 53.3179C75.5387 49.0031 77.2367 44.6684 77.0201 41.3055C76.3203 30.4795 70.7315 22.3667 63.427 21.3669C62.6455 21.2603 61.8556 21.2169 61.0683 21.2434C62.5847 13.8623 59.161 6.6299 52.9441 4.33784C52.5453 4.19008 52.1186 4.4501 51.989 4.91518C51.8617 5.38263 52.0789 5.87889 52.4777 6.02666C58.0799 8.09219 61.0852 14.7357 59.4722 21.3921ZM58.5128 23.3843C58.0976 23.4933 57.6872 23.6276 57.2799 23.7842C57.0625 23.8696 56.6605 24.0507 56.3468 24.3123C56.274 24.3744 56.1788 24.4914 56.1358 24.5466C56.2204 24.7995 56.3075 24.9705 56.451 25.0166C56.6296 25.0754 56.8232 24.9734 57.0299 24.8493C57.5491 24.5386 58.085 23.9653 58.5128 23.3843Z" fill="white"/>
</g>
<g opacity="0.7" clip-path="url(#clip0_2604_88)">
<path fill-rule="evenodd" clip-rule="evenodd" d="M296.129 14.1615C288.892 29.8664 274.435 36.2514 261.009 27.4098C260.562 27.1154 259.995 27.2995 259.743 27.8147C259.49 28.3391 259.648 29.0015 260.095 29.296C274.487 38.7815 290.008 32.0193 297.765 15.1919C298.008 14.6675 297.839 14.005 297.387 13.7197C296.935 13.4437 296.371 13.637 296.129 14.1615Z" fill="white"/>
<path d="M272.308 20.6742C273.803 20.6742 275.015 19.2599 275.015 17.5153C275.015 15.7706 273.803 14.3563 272.308 14.3563C270.813 14.3563 269.601 15.7706 269.601 17.5153C269.601 19.2599 270.813 20.6742 272.308 20.6742Z" fill="white"/>
<path d="M283.513 17.3139C284.979 17.3139 286.167 15.9273 286.167 14.2167C286.167 12.5062 284.979 11.1195 283.513 11.1195C282.047 11.1195 280.859 12.5062 280.859 14.2167C280.859 15.9273 282.047 17.3139 283.513 17.3139Z" fill="white"/>
</g>
<path opacity="0.1" fill-rule="evenodd" clip-rule="evenodd" d="M200.454 385.382L129.264 407.173C104.124 414.446 82.132 424.134 60.9405 415.653C32.1344 401.106 32.6507 363.26 54.1261 323C16.1569 359.639 -52.1671 476.798 40.2394 488.629C52.0096 490.44 72.9688 485.611 95.7348 474.414L200.454 424.164L407 325.414L226.111 377.505L200.454 385.382V385.382Z" fill="#FFF6F2"/>
<defs>
<clipPath id="clip0_2604_88">
<rect width="38.5581" height="45" fill="white" transform="translate(259.622)"/>
</clipPath>
</defs>
</svg>
